<svg xmlns="http://www.w3.org/2000/svg" id="Layer_1" data-name="Layer 1" viewBox="0 0 243.8 82.55"><defs><style>.cls-1{fill:#f0981b}.cls-2{fill:#fff}</style></defs><path d="M117.58 15.14c-2.4-2.44-5.37-3.65-8.91-3.65s-6.67 1.24-8.99 3.73c-2.31 2.49-3.47 5.7-3.47 9.63v22.22h4.21V25.75c0-2.78.46-4.85 1.39-6.22.93-1.37 1.99-2.36 3.18-2.97 1.19-.62 2.49-.92 3.89-.92 2.21 0 4.08.8 5.62 2.41 1.55 1.62 2.32 3.56 2.32 5.84s-.77 4.36-2.32 5.94c-1.54 1.57-3.46 2.36-5.78 2.36-1.19 0-2.27-.22-3.26-.68-.98-.46-2.08-1.23-3.31-2.31v4.57c2.18 1.72 4.49 2.58 6.94 2.58 3.29 0 6.13-1.21 8.52-3.63 2.38-2.42 3.57-5.29 3.57-8.62 0-3.54-1.2-6.53-3.6-8.96ZM145.54 15.16c-2.35-2.45-5.31-3.67-8.88-3.67s-6.48 1.21-8.91 3.65c-2.44 2.43-3.66 5.37-3.66 8.8s1.18 6.4 3.53 8.78c2.34 2.38 5.2 3.57 8.56 3.57 1.4 0 2.63-.19 3.68-.58 1.05-.38 2.14-1.05 3.26-1.99v-4.47c-2.17 1.93-4.31 2.89-6.41 2.89-2.35 0-4.31-.79-5.89-2.36-1.58-1.58-2.36-3.53-2.36-5.84s.78-4.27 2.36-5.89c1.58-1.61 3.5-2.41 5.78-2.41 2.53 0 4.53.88 6.02 2.65 1.49 1.77 2.23 4.13 2.23 7.07v10.46h4.21v-11.3c0-3.78-1.18-6.9-3.52-9.36ZM168.9 11.96v13.35c0 2.24-.51 3.97-1.52 5.17-1.02 1.21-2.47 1.82-4.36 1.82s-3.37-.6-4.42-1.79c-1.05-1.19-1.58-2.85-1.58-4.99V11.96h-4.2v13.82c0 6.2 2.73 9.65 8.2 10.36v10.93h4.2V36.14c5.26-1.02 7.89-4.56 7.89-10.62V11.96h-4.21ZM197.97 15.16c-2.35-2.45-5.31-3.67-8.89-3.67s-6.47 1.21-8.9 3.65c-2.44 2.43-3.66 5.37-3.66 8.8s1.18 6.4 3.52 8.78c2.35 2.38 5.21 3.57 8.57 3.57 1.4 0 2.63-.19 3.68-.58 1.05-.38 2.14-1.05 3.26-1.99v-4.47c-2.17 1.93-4.31 2.89-6.41 2.89-2.35 0-4.31-.79-5.89-2.36-1.58-1.58-2.37-3.53-2.37-5.84s.79-4.27 2.37-5.89c1.58-1.61 3.5-2.41 5.78-2.41 2.52 0 4.53.88 6.02 2.65 1.49 1.77 2.23 4.13 2.23 7.07v10.46h4.21v-11.3c0-3.78-1.18-6.9-3.52-9.36ZM217.62 11.43c-3.54 0-6.13 1.58-7.78 4.73v-4.2h-4.2v23.86h4.2V25c0-3.31.69-5.74 2.05-7.29 1.37-1.54 3.53-2.32 6.47-2.32h.84v-3.96h-1.58ZM240.28 15.16c-2.35-2.45-5.31-3.67-8.89-3.67s-6.47 1.21-8.91 3.65c-2.43 2.43-3.65 5.37-3.65 8.8s1.18 6.4 3.52 8.78c2.35 2.38 5.21 3.57 8.57 3.57 1.4 0 2.63-.19 3.68-.58 1.05-.38 2.14-1.05 3.26-1.99v-4.47c-2.18 1.93-4.31 2.89-6.41 2.89-2.35 0-4.31-.79-5.89-2.36-1.58-1.58-2.37-3.53-2.37-5.84s.79-4.27 2.37-5.89c1.58-1.61 3.5-2.41 5.78-2.41 2.52 0 4.53.88 6.02 2.65 1.49 1.77 2.23 4.13 2.23 7.07v10.46h4.21v-11.3c0-3.78-1.18-6.9-3.52-9.36Z" class="cls-2"/><path d="M113.76 62.88c0-4.82-3.53-8.28-8.38-8.28s-8.35 3.46-8.35 8.28 3.53 8.28 8.35 8.28c1.39 0 2.69-.29 3.82-.82l1.27 1.52 2.38-1.95-1.18-1.37c1.32-1.44 2.09-3.4 2.09-5.66Zm-4.32 3.05-1.82-2.14-2.38 1.92 1.82 2.14c-.5.19-1.08.29-1.68.29-2.95 0-4.85-2.28-4.85-5.26s1.9-5.26 4.85-5.26 4.88 2.26 4.88 5.26c0 1.15-.29 2.21-.82 3.05ZM128.21 54.86v9.51c0 2.23-1.23 3.77-3.68 3.77s-3.72-1.54-3.72-3.77v-9.51h-3.45v9.63c0 3.93 2.28 6.67 7.17 6.67s7.13-2.71 7.13-6.7v-9.6h-3.45ZM146.3 62.62c1.51-.32 2.76-1.66 2.76-3.68 0-2.13-1.56-4.08-4.61-4.08h-8.42v16.01h8.69c3.05 0 4.66-1.92 4.66-4.32 0-2.01-1.37-3.67-3.08-3.93Zm-6.86-4.85h4.27c1.15 0 1.87.77 1.87 1.75 0 1.03-.72 1.78-1.87 1.78h-4.27v-3.53Zm4.39 10.2h-4.39V64.2h4.39c1.34 0 2.06.86 2.06 1.87 0 1.15-.76 1.9-2.06 1.9ZM164.47 57.79v-2.93h-11.33v16.01h11.33v-2.95h-7.92V64.2h7.75v-2.93h-7.75v-3.48h7.92ZM70.56 18 38.41.52a4.22 4.22 0 0 0-4.05 0L2.22 18A4.229 4.229 0 0 0 0 21.72v39.12c0 1.55.85 2.98 2.22 3.72l32.14 17.48c1.26.69 2.79.69 4.05 0l32.15-17.48a4.24 4.24 0 0 0 2.21-3.72V21.72c0-1.55-.85-2.98-2.21-3.72ZM36.39 71.71c-16.81 0-30.43-13.62-30.43-30.43s13.62-30.42 30.43-30.42 30.42 13.62 30.42 30.42-13.62 30.43-30.42 30.43Z" class="cls-1"/><path d="M39.69 19.58c-7.07-1.04-13.67 1.33-18.33 5.72-.53.5-1.03 1.02-1.51 1.57a22.09 22.09 0 0 0-3.45 5.34c-.29.65-.56 1.32-.78 2-.24.69-.45 1.4-.6 2.12-.39 1.59-.58 3.24-.58 4.95 0 12.1 9.85 21.95 21.94 21.95 4.39 0 8.48-1.29 11.91-3.51 1.3-.85 1.22-2.79-.11-3.58h-.01c-.68-.41-1.54-.41-2.21.02-3.07 1.99-6.8 3.06-10.79 2.79-10.16-.68-17.73-10.1-16.32-20.19.01-.04.02-.08.02-.12.12-.75.28-1.49.49-2.2.19-.7.44-1.37.71-2.04.55-1.32 1.26-2.55 2.11-3.67.43-.58.89-1.12 1.39-1.64.51-.54 1.05-1.05 1.62-1.51 3.05-2.51 6.95-4 11.19-4 9.78 0 17.71 7.94 17.71 17.7 0 .7-.04 1.4-.12 2.08-.1.82.31 1.61 1.02 2.03.35.21.72.3 1.08.3 1.03 0 1.99-.74 2.12-1.86.07-.6.11-1.21.13-1.82.36-11.02-7.72-20.82-18.63-22.43Z" class="cls-2"/><path d="M55.21 52.93a2.128 2.128 0 0 1-2.91.73l-9.99-5.97a2.12 2.12 0 0 1-.74-2.91 2.123 2.123 0 0 1 2.91-.73l10 5.97c1 .6 1.33 1.9.73 2.91Z" class="cls-2"/></svg>