<svg id="Layer_2" data-name="Layer 2" xmlns="http://www.w3.org/2000/svg" viewBox="0 0 282 141.99"><defs><style>.cls-2,.cls-3{stroke-width:0}.cls-2{fill:#fff}.cls-3{fill:#f0981b}</style></defs><path class="cls-3" d="M6.39 82.25c2.37 5.43 8.32 12.36 9.28 13.13-1.38 2.46-3.72 2.98-3.72 2.98s-5.84-9.57-5.56-16.11M2.97 83.67c1.89 5.61 7.59 13.32 8.48 14.17-1.59 2.33-4.36 2.37-4.36 2.37S2.11 90.16 2.97 83.67"/><path class="cls-3" d="M46.95 36.42s.88-5.24-4.72-9.37c6.18 2.14 6.77 5.56 4.72 9.37m-2.67 4.07s1.16-6.92-6.24-12.37c8.16 2.83 8.94 7.34 6.24 12.37m-3.11 4.36s1.44-8.6-7.75-15.37c10.14 3.51 11.11 9.12 7.75 15.37m-3.55 4.36s1.72-10.29-9.26-18.38c12.12 4.2 13.28 10.9 9.26 18.38m-15.93 23.2c-1.58 1.93-3.67 2.23-5.4 1.23-2.33-1.34 1.82-10.84 7.74-11.28 0 0-.1 7.3-2.34 10.05M130.57 0S95.4 8.86 89.26 19.45c-14.7-2.61-39.69 1.34-39.69 1.34S47.11 4.56 48.94.01C9.49 18.98 1.38 59.85 0 81.93c0 0 11.26-5.39 22.12.89.44-.32-7.35 14.07-15.11 17.4-.09.04.51.15.42.17 7.97-.29 25.11-7.53 32.99-13.79 26.15-20.79 22.56-35.29 22.56-35.29s-12.06 19.25-21.6 7.13c-7.52-9.56 15.03-31.31 52.72-24.7 22.46 3.94 36.47 13.7 36.47 13.7l-21-23.1 21-24.34Z"/><path class="cls-2" d="M68.83 100.75V71.81c0-2.84.14-5.05.43-6.62.28-1.57.76-3.01 1.41-4.33 1.39-2.84 3.42-5.07 6.09-6.67 2.67-1.6 5.65-2.4 8.92-2.4 4.87 0 8.88 1.63 12.05 4.9 3.16 3.27 4.74 7.4 4.74 12.41 0 2.27-.39 4.45-1.18 6.52-.78 2.07-1.92 3.91-3.39 5.53a15.55 15.55 0 0 1-5.39 3.91 16.11 16.11 0 0 1-6.55 1.38c-1.66 0-3.25-.19-4.76-.56a17.1 17.1 0 0 1-4.32-1.72v-6.45c1.36 1.05 2.75 1.82 4.16 2.32 1.41.5 2.84.75 4.3.75 3.21 0 5.85-1.1 7.92-3.31 2.07-2.21 3.11-5.04 3.11-8.5s-1.01-6.13-3.04-8.29c-2.03-2.16-4.62-3.24-7.78-3.24s-5.73 1.09-7.71 3.26c-1.98 2.17-2.97 5.01-2.97 8.51v31.57h-6.04ZM132.95 85.87V69.18c0-3.5-.99-6.34-2.97-8.51s-4.55-3.26-7.71-3.26-5.72 1.07-7.73 3.22-3.02 4.92-3.02 8.31 1.03 6.29 3.11 8.5 4.71 3.31 7.92 3.31c1.45 0 2.87-.25 4.25-.75s2.76-1.27 4.15-2.32v6.45c-1.36.77-2.8 1.35-4.32 1.72-1.51.38-3.1.56-4.76.56s-3.17-.24-4.74-.73-2.99-1.18-4.26-2.06c-2.41-1.66-4.26-3.74-5.53-6.23-1.28-2.49-1.91-5.26-1.91-8.31 0-5 1.58-9.14 4.74-12.41 3.16-3.26 7.18-4.9 12.05-4.9 3.21 0 6.14.81 8.81 2.42 2.66 1.62 4.71 3.84 6.14 6.66.66 1.27 1.13 2.67 1.42 4.18.28 1.51.43 3.77.43 6.77v14.06h-6.04ZM170.66 52.4v18.26c0 4.28-.93 7.71-2.8 10.29-1.87 2.58-4.69 4.34-8.46 5.27v14.54h-6.01V86.22c-3.78-.93-6.59-2.68-8.43-5.25-1.84-2.57-2.76-6.01-2.76-10.31V52.4h5.97v19.35c0 2.64.78 4.79 2.34 6.45 1.56 1.66 3.54 2.49 5.95 2.49s4.42-.83 5.96-2.49 2.3-3.81 2.3-6.45V52.4h5.94ZM201.46 85.87V69.18c0-3.5-.99-6.34-2.97-8.51s-4.55-3.26-7.71-3.26-5.72 1.07-7.73 3.22-3.02 4.92-3.02 8.31 1.03 6.29 3.11 8.5 4.71 3.31 7.92 3.31c1.45 0 2.87-.25 4.25-.75 1.37-.5 2.76-1.27 4.15-2.32v6.45a17.1 17.1 0 0 1-4.32 1.72c-1.51.38-3.1.56-4.76.56s-3.18-.24-4.74-.73-2.99-1.18-4.26-2.06c-2.41-1.66-4.26-3.74-5.53-6.23-1.27-2.49-1.91-5.26-1.91-8.31 0-5 1.58-9.14 4.74-12.41 3.16-3.26 7.18-4.9 12.05-4.9 3.21 0 6.14.81 8.81 2.42 2.66 1.62 4.71 3.84 6.14 6.66.66 1.27 1.13 2.67 1.42 4.18.28 1.51.43 3.77.43 6.77v14.06h-6.04ZM211.61 85.87V52.39h5.53v4.95c1.02-1.96 2.43-3.37 4.23-4.25 1.8-.88 4.22-1.31 7.27-1.31h1.57v5.8h-.92c-4.12 0-7.09.98-8.92 2.94s-2.75 5.14-2.75 9.56v15.8h-6.01ZM257.71 85.87V69.18c0-3.5-.99-6.34-2.97-8.51-1.98-2.17-4.55-3.26-7.71-3.26s-5.72 1.07-7.73 3.22-3.02 4.92-3.02 8.31 1.03 6.29 3.11 8.5 4.71 3.31 7.92 3.31c1.45 0 2.87-.25 4.25-.75s2.76-1.27 4.15-2.32v6.45c-1.37.77-2.8 1.35-4.32 1.72-1.51.38-3.1.56-4.76.56s-3.18-.24-4.74-.73-2.99-1.18-4.26-2.06c-2.41-1.66-4.25-3.74-5.53-6.23-1.27-2.49-1.91-5.26-1.91-8.31 0-5 1.58-9.14 4.74-12.41 3.16-3.26 7.18-4.9 12.05-4.9 3.21 0 6.14.81 8.81 2.42 2.66 1.62 4.71 3.84 6.14 6.66.66 1.27 1.13 2.67 1.42 4.18.28 1.51.43 3.77.43 6.77v14.06h-6.04ZM274.81 44.29c.25-.06.45-.16.6-.29.15-.12.26-.26.33-.43.07-.17.11-.37.11-.59v-.07c-.01-.16-.06-.32-.13-.47-.07-.15-.19-.3-.36-.44-.15-.13-.35-.24-.62-.31s-.59-.11-.98-.11l-1.76-.04v2.8h1.91c.34.03.64.01.89-.04m-4.38-3.98h3.85c.74.07 1.34.19 1.79.36s.75.38.9.65c.16.27.28.56.35.87.07.31.11.64.11.98s-.05.68-.14.96c-.1.28-.24.53-.44.73s-.44.37-.76.5c-.31.13-.68.21-1.11.25l2.63 3.98h-1.76l-2.45-4.03h-1.4v4.03h-1.58v-9.28Zm-2.74 7.17c.28.79.7 1.51 1.25 2.16a5.44 5.44 0 0 0 2.05 1.45c.8.33 1.73.49 2.78.49.16 0 .32 0 .49-.02s.33-.04.51-.07.36-.07.54-.11c.18-.04.35-.1.53-.16.52-.18 1.01-.43 1.48-.77s.92-.75 1.35-1.24c.43-.49.76-1.09 1-1.8s.37-1.54.4-2.49c0-.83-.15-1.62-.44-2.37-.3-.75-.74-1.46-1.34-2.12a5.853 5.853 0 0 0-2.01-1.5c-.75-.33-1.58-.5-2.5-.5h-.36s-.05.02-.07.02h-.07c-.76.06-1.48.24-2.17.53-.69.3-1.35.73-1.97 1.29-.62.55-1.09 1.21-1.4 1.98-.31.77-.47 1.66-.47 2.67v-.04c0 .95.14 1.82.42 2.61m-2.31-3.27c.01-.18.04-.36.07-.56.03-.18.07-.36.13-.56.06-.19.12-.38.18-.58.24-.71.58-1.39 1.04-2.04.45-.65 1.02-1.27 1.7-1.86s1.46-1.04 2.34-1.34c.88-.3 1.85-.44 2.94-.44 1.17 0 2.25.21 3.23.63s1.86 1.05 2.63 1.88c.79.83 1.37 1.7 1.77 2.61.39.91.6 1.87.61 2.88v.07c-.04 1.32-.28 2.49-.71 3.51a7.106 7.106 0 0 1-1.85 2.59c-.82.71-1.68 1.24-2.59 1.58-.91.34-1.87.51-2.88.51h-.38c-1.35-.04-2.53-.28-3.54-.69-1.01-.42-1.85-1.03-2.51-1.85-.67-.8-1.19-1.65-1.55-2.54-.36-.89-.57-1.82-.61-2.78 0-.03 0-.05-.01-.07 0-.01-.01-.04-.01-.07v-.42c0-.15 0-.31.02-.49"/><path d="M97.76 117.08c.15.32.12.68-.06.98-.19.29-.51.47-.86.47h-6.59c-.35 0-.67.18-.86.47-.19.29-.21.66-.06.98.85 1.82 2.26 4.85 2.86 6.13.17.36.53.59.92.59h10.33c.87 0 1.68-.44 2.15-1.18.47-.73.53-1.66.16-2.45-1.13-2.43-2.62-5.62-3.75-8.05-.37-.79-.31-1.71.16-2.45.47-.73 1.28-1.18 2.15-1.18h163.86c1.1 0 1.99 1.14 1.99 2.55v25.49c0 1.41-.89 2.55-1.99 2.55H93.34c-.99 0-1.89-.57-2.31-1.47-2.14-4.59-8.75-18.75-11.88-25.49-.37-.79-.31-1.71.16-2.45.47-.73 1.28-1.18 2.15-1.18H93.5c.99 0 1.89.57 2.31 1.47.58 1.23 1.39 2.99 1.96 4.21Z" style="stroke-width:0;fill:#00618a;fill-rule:evenodd"/><path class="cls-2" d="M127.96 133.95c2.97 0 4.71-1.49 5.8-3.19l-2.12-1.08c-.68 1.19-2.04 2.06-3.67 2.06-2.7 0-4.78-2.15-4.78-5.12s2.08-5.12 4.78-5.12c1.64 0 2.99.89 3.67 2.06l2.12-1.08c-1.06-1.7-2.82-3.19-5.8-3.19-4.08 0-7.33 2.97-7.33 7.33s3.25 7.33 7.33 7.33ZM137.24 126.63c0 4.23 2.99 7.33 7.24 7.33s7.24-3.1 7.24-7.33-2.99-7.33-7.24-7.33-7.24 3.1-7.24 7.33Zm11.94 0c0 2.91-1.85 5.12-4.69 5.12s-4.69-2.21-4.69-5.12 1.83-5.12 4.69-5.12 4.69 2.19 4.69 5.12ZM168.48 133.7h2.48v-14.17h-3.5l-3.87 9.54-3.84-9.54h-3.5v14.17h2.48v-10.73l4.33 10.73h1.06l4.35-10.73v10.73ZM188.34 133.7h2.48v-14.17h-3.5l-3.87 9.54-3.84-9.54h-3.5v14.17h2.48v-10.73l4.33 10.73h1.06l4.35-10.73v10.73ZM195.96 128.11c0 3.48 2.02 5.84 6.14 5.84s6.12-2.34 6.12-5.86v-8.56h-2.51v8.5c0 2.25-1.25 3.72-3.61 3.72s-3.63-1.47-3.63-3.72v-8.5h-2.51v8.58ZM223.23 133.7h2.4v-14.17h-2.48v10.05l-7.24-10.05h-2.55v14.17h2.48v-10.32l7.39 10.32ZM230.77 119.53h2.48v14.17h-2.48zM241.77 133.7h2.48v-11.98h4.29v-2.19h-11.07v2.19h4.29v11.98ZM256.79 133.7h2.48v-5.88l5.48-8.28h-2.85l-3.87 6.07-3.91-6.07h-2.85l5.5 8.28v5.88Z"/></svg>